<svg width="300" height="100" xmlns="http://www.w3.org/2000/svg">
  <defs>
    <linearGradient id="gold" x1="0%" y1="0%" x2="100%" y2="100%">
      <stop offset="0%" stop-color="#fbbf24"/>
      <stop offset="100%" stop-color="#f59e0b"/>
    </linearGradient>
    <linearGradient id="bgGrad" x1="0%" y1="0%" x2="100%" y2="100%">
      <stop offset="0%" stop-color="#0f172a"/>
      <stop offset="100%" stop-color="#1e293b"/>
    </linearGradient>
  </defs>
  <rect width="300" height="100" rx="16" fill="url(#bgGrad)"/>
  <!-- Dice icon -->
  <rect x="20" y="25" width="50" height="50" rx="10" fill="url(#gold)" opacity="0.9"/>
  <circle cx="35" cy="40" r="4" fill="#0f172a"/>
  <circle cx="55" cy="40" r="4" fill="#0f172a"/>
  <circle cx="35" cy="60" r="4" fill="#0f172a"/>
  <circle cx="55" cy="60" r="4" fill="#0f172a"/>
  <circle cx="45" cy="50" r="4" fill="#0f172a"/>
  <!-- Text -->
  <text x="85" y="45" font-family="Inter, system-ui, sans-serif" font-size="28" font-weight="800" fill="white" letter-spacing="-1">AZAR</text>
  <text x="85" y="70" font-family="Inter, system-ui, sans-serif" font-size="16" font-weight="600" fill="url(#gold)">S.A.</text>
  <!-- Accent line -->
  <rect x="85" y="75" width="60" height="2" rx="1" fill="url(#gold)" opacity="0.5"/>
  <!-- Sparkle -->
  <path d="M250 25 L253 35 L263 38 L253 41 L250 51 L247 41 L237 38 L247 35Z" fill="#fbbf24" opacity="0.6"/>
  <path d="M270 55 L272 61 L278 63 L272 65 L270 71 L268 65 L262 63 L268 61Z" fill="#fbbf24" opacity="0.4"/>
</svg>
