<svg width="400" height="300" xmlns="http://www.w3.org/2000/svg">
  <defs>
    <linearGradient id="goldBg" x1="0%" y1="0%" x2="100%" y2="100%">
      <stop offset="0%" stop-color="#1a1505"/><stop offset="100%" stop-color="#1e293b"/>
    </linearGradient>
    <linearGradient id="goldLine" x1="0%" y1="0%" x2="100%"><stop offset="0%" stop-color="#fbbf24"/><stop offset="100%" stop-color="#f59e0b"/></linearGradient>
  </defs>
  <rect width="400" height="300" rx="20" fill="url(#goldBg)"/>
  <!-- Gold border glow -->
  <rect x="2" y="2" width="396" height="296" rx="18" fill="none" stroke="#fbbf24" stroke-width="2" opacity="0.3"/>
  <!-- Crown -->
  <g transform="translate(150, 60)" opacity="0.8">
    <path d="M0 60 L15 20 L35 45 L50 0 L65 45 L85 20 L100 60Z" fill="url(#goldLine)"/>
    <rect x="0" y="60" width="100" height="12" rx="3" fill="url(#goldLine)"/>
    <circle cx="15" cy="20" r="5" fill="#fbbf24"/><circle cx="50" cy="0" r="6" fill="#fbbf24"/><circle cx="85" cy="20" r="5" fill="#fbbf24"/>
  </g>
  <!-- Text -->
  <text x="200" y="170" font-family="Inter, sans-serif" font-size="24" font-weight="800" fill="#fbbf24" text-anchor="middle">SORTEO ORO</text>
  <text x="200" y="195" font-family="Inter, sans-serif" font-size="13" fill="#94a3b8" text-anchor="middle">Premio Mayor · Edición Premium</text>
  <!-- Stars -->
  <g fill="#fbbf24" opacity="0.5">
    <path d="M80 240 L83 230 L90 228 L83 226 L80 216 L77 226 L70 228 L77 230Z"/>
    <path d="M320 240 L323 230 L330 228 L323 226 L320 216 L317 226 L310 228 L317 230Z"/>
    <path d="M200 260 L202 254 L208 252 L202 250 L200 244 L198 250 L192 252 L198 254Z"/>
  </g>
  <!-- Ticket number -->
  <rect x="130" y="210" width="140" height="35" rx="8" fill="#fbbf24" opacity="0.1" stroke="#fbbf24" stroke-width="1" opacity="0.3"/>
  <text x="200" y="233" font-family="monospace" font-size="14" fill="#fbbf24" text-anchor="middle" opacity="0.6">$50.000+</text>
</svg>
